<svg width="101" height="36" viewBox="0 0 101 36" fill="none" xmlns="http://www.w3.org/2000/svg">
<path d="M24.7071 8.16155V0.7854H0V35.2115H7.41499V22.9179H22.2368V15.5418H7.41499V8.16155H24.7071Z" fill="#0A6DE6"/>
<path d="M34.4285 0.7854H27.0176V35.2115H34.4285V0.7854Z" fill="#0A6DE6"/>
<path d="M62.2119 25.4173C60.7116 26.8325 58.8281 27.7799 56.7935 28.1428C54.7589 28.5057 52.6621 28.2683 50.7614 27.4598C48.8607 26.6514 47.2391 25.3071 46.0965 23.5927C44.9538 21.8783 44.34 19.8687 44.3307 17.8114C44.3214 15.7541 44.917 13.739 46.044 12.0144C47.1711 10.2898 48.7804 8.93109 50.6737 8.10558C52.567 7.28006 54.6616 7.02385 56.6994 7.3685C58.7372 7.71315 60.6292 8.64362 62.1423 10.0453C63.0208 7.75072 64.2918 5.62487 65.8989 3.76187C63.2563 1.70888 60.0863 0.437902 56.7518 0.0944177C53.4173 -0.249067 50.053 0.348812 47.0439 1.81963C44.0349 3.29045 41.5027 5.57476 39.7372 8.41114C37.9716 11.2475 37.0441 14.5213 37.0608 17.8579C37.0774 21.1945 38.0376 24.459 39.8313 27.2777C41.6251 30.0965 44.1799 32.3557 47.2035 33.7967C50.2271 35.2377 53.5972 35.8022 56.9281 35.4258C60.2591 35.0494 63.4162 33.7471 66.0382 31.6681C64.4127 29.8179 63.1184 27.7035 62.2119 25.4173Z" fill="#0A6DE6"/>
<path d="M82.1053 0.0187993C78.5741 0.0187994 75.1221 1.06108 72.1861 3.01382C69.25 4.96655 66.9617 7.74201 65.6106 10.9892C64.2594 14.2364 63.9061 17.8095 64.5953 21.2566C65.2845 24.7037 66.9853 27.8699 69.4825 30.3549C71.9798 32.8399 75.1613 34.5319 78.6248 35.2171C82.0883 35.9023 85.6781 35.5498 88.9403 34.2043C92.2025 32.8587 94.9905 30.5805 96.9518 27.6577C98.9131 24.735 99.9594 21.299 99.9586 17.7844C99.9586 15.451 99.4968 13.1405 98.5996 10.9848C97.7023 8.82915 96.3872 6.87051 94.7293 5.22078C93.0714 3.57104 91.1032 2.26252 88.9372 1.36996C86.7711 0.477397 84.4496 0.0182638 82.1053 0.0187993ZM82.1053 28.3369C80.0082 28.3377 77.958 27.7195 76.2139 26.5604C74.4698 25.4014 73.1103 23.7536 72.3072 21.8255C71.5041 19.8973 71.2936 17.7754 71.7022 15.7282C72.1108 13.6809 73.1203 11.8003 74.6029 10.324C76.0854 8.84785 77.9746 7.84242 80.0313 7.43492C82.088 7.02741 84.22 7.23615 86.1575 8.03473C88.0951 8.8333 89.7512 10.1858 90.9163 11.9213C92.0815 13.6567 92.7034 15.6971 92.7034 17.7844C92.7034 20.5823 91.587 23.2658 89.5995 25.2447C87.6121 27.2235 84.9165 28.3358 82.1053 28.3369Z" fill="#0A6DE6"/>
<path d="M95.2481 32.8994C95.2474 32.6723 95.2763 32.4462 95.3341 32.2266C95.3893 32.0175 95.4705 31.8162 95.5758 31.6272C95.6771 31.4453 95.801 31.2768 95.9445 31.1257C96.0884 30.9778 96.2509 30.849 96.4279 30.7424C96.7006 30.5802 97.0035 30.4749 97.3183 30.4328C97.6331 30.3908 97.9532 30.4129 98.2591 30.4977C98.4577 30.5539 98.6478 30.6362 98.8245 30.7424C99.001 30.848 99.1622 30.9769 99.3038 31.1257C99.4499 31.2756 99.5753 31.4443 99.6766 31.6272C99.782 31.8162 99.8632 32.0175 99.9183 32.2266C100.033 32.6692 100.033 33.1336 99.9183 33.5762C99.8632 33.7853 99.782 33.9866 99.6766 34.1756C99.5764 34.3605 99.4509 34.5306 99.3038 34.6812C99.1601 34.8289 98.9992 34.959 98.8245 35.0686C98.6478 35.1748 98.4577 35.2571 98.2591 35.3132C97.8471 35.4328 97.4094 35.4328 96.9974 35.3132C96.7972 35.2579 96.6057 35.1755 96.4279 35.0686C96.2526 34.958 96.0905 34.828 95.9445 34.6812C95.7999 34.5294 95.676 34.3595 95.5758 34.1756C95.4705 33.9866 95.3893 33.7853 95.3341 33.5762C95.276 33.3553 95.2471 33.1277 95.2481 32.8994ZM95.6331 32.8994C95.6328 33.1789 95.6871 33.4559 95.7929 33.7149C95.8861 33.9614 96.0251 34.1882 96.2026 34.3836C96.3831 34.5716 96.5988 34.7226 96.8376 34.828C97.0821 34.933 97.3456 34.9872 97.6119 34.9872C97.8782 34.9872 98.1416 34.933 98.3861 34.828C98.6229 34.7211 98.837 34.5702 99.017 34.3836C99.1945 34.1882 99.3335 33.9614 99.4267 33.7149C99.5326 33.4559 99.5868 33.1789 99.5865 32.8994C99.5879 32.6197 99.5336 32.3425 99.4267 32.0839C99.3334 31.8386 99.1944 31.6132 99.017 31.4192C98.8382 31.2322 98.6237 31.0825 98.3861 30.9789C98.1416 30.8739 97.8782 30.8197 97.6119 30.8197C97.3456 30.8197 97.0821 30.8739 96.8376 30.9789C96.5982 31.0814 96.3821 31.2312 96.2026 31.4192C96.0252 31.6132 95.8862 31.8386 95.7929 32.0839C95.6861 32.3425 95.6317 32.6197 95.6331 32.8994ZM97.1366 33.1522V34.2776H96.6614V31.4315H97.5873C97.7379 31.429 97.8881 31.4468 98.0338 31.4845C98.1562 31.5158 98.2715 31.5698 98.3738 31.6435C98.4676 31.7122 98.5423 31.8034 98.591 31.9085C98.6421 32.0269 98.6672 32.1548 98.6647 32.2837C98.667 32.4139 98.6299 32.5417 98.5582 32.6506C98.4746 32.7622 98.3649 32.8518 98.2387 32.9116C98.3089 32.9403 98.3739 32.9803 98.4312 33.0299C98.4812 33.0747 98.5241 33.127 98.5582 33.1848C98.5897 33.2468 98.6131 33.3126 98.6279 33.3805C98.6411 33.4532 98.648 33.5268 98.6483 33.6007V33.7842C98.6439 33.863 98.6439 33.9419 98.6483 34.0207C98.6551 34.0849 98.6703 34.1479 98.6934 34.2082V34.2612H98.21C98.1965 34.2257 98.1869 34.1888 98.1813 34.1512C98.1813 34.1063 98.1813 34.0614 98.1813 34.0166C98.1813 33.9717 98.1813 33.9228 98.1813 33.882V33.6048C98.1914 33.4768 98.1518 33.3498 98.0707 33.25C97.9637 33.1636 97.8268 33.1226 97.6897 33.1359L97.1366 33.1522ZM97.1366 32.724H97.6569C97.7261 32.7232 97.795 32.7136 97.8618 32.6955C97.9225 32.678 97.9805 32.6519 98.0338 32.618C98.0821 32.5862 98.1216 32.5427 98.1485 32.4916C98.181 32.439 98.1967 32.3779 98.1936 32.3163C98.1937 32.2367 98.1784 32.1577 98.1485 32.0839C98.1293 32.0284 98.0936 31.9801 98.0461 31.9452C97.9916 31.9061 97.9283 31.8809 97.8618 31.8719C97.7673 31.854 97.6712 31.8458 97.575 31.8474H97.1244L97.1366 32.724Z" fill="#0A6DE6"/>
</svg>
